<svg width="24" height="25" viewBox="0 0 24 25" fill="none" xmlns="http://www.w3.org/2000/svg">
<g clip-path="url(#clip0_459_2356)">
<path d="M7 15.5H5C3.89543 15.5 3 16.3954 3 17.5V19.5C3 20.6046 3.89543 21.5 5 21.5H7C8.10457 21.5 9 20.6046 9 19.5V17.5C9 16.3954 8.10457 15.5 7 15.5Z" stroke="black" stroke-width="1.5" stroke-linecap="round" stroke-linejoin="round"/>
<path d="M19 15.5H17C15.8954 15.5 15 16.3954 15 17.5V19.5C15 20.6046 15.8954 21.5 17 21.5H19C20.1046 21.5 21 20.6046 21 19.5V17.5C21 16.3954 20.1046 15.5 19 15.5Z" stroke="black" stroke-width="1.5" stroke-linecap="round" stroke-linejoin="round"/>
<path d="M13 3.5H11C9.89543 3.5 9 4.39543 9 5.5V7.5C9 8.60457 9.89543 9.5 11 9.5H13C14.1046 9.5 15 8.60457 15 7.5V5.5C15 4.39543 14.1046 3.5 13 3.5Z" stroke="black" stroke-width="1.5" stroke-linecap="round" stroke-linejoin="round"/>
<path d="M6 15.5V14.5C6 13.9696 6.21071 13.4609 6.58579 13.0858C6.96086 12.7107 7.46957 12.5 8 12.5H16C16.5304 12.5 17.0391 12.7107 17.4142 13.0858C17.7893 13.4609 18 13.9696 18 14.5V15.5" stroke="black" stroke-width="1.5" stroke-linecap="round" stroke-linejoin="round"/>
<path d="M12 9.5V12.5" stroke="black" stroke-width="1.5" stroke-linecap="round" stroke-linejoin="round"/>
</g>
<defs>
<clipPath id="clip0_459_2356">
<rect width="24" height="24" fill="white" transform="translate(0 0.5)"/>
</clipPath>
</defs>
</svg>
