<svg width="20" height="20" viewBox="0 0 20 20" fill="none" xmlns="http://www.w3.org/2000/svg">
<path d="M19.4669 3.03245C19.6336 2.87111 19.7665 2.67808 19.8581 2.46463C19.9496 2.25118 19.9978 2.02159 19.9999 1.78924C20.002 1.55689 19.958 1.32645 19.8704 1.11136C19.7828 0.89626 19.6534 0.700822 19.4897 0.536444C19.326 0.372066 19.1312 0.24204 18.9169 0.153953C18.7026 0.0658657 18.4729 0.0214823 18.2413 0.023391C18.0096 0.0252998 17.7807 0.0734628 17.5679 0.16507C17.355 0.256678 17.1624 0.389895 17.0014 0.556949L10.0099 7.56815L3.02063 0.556949C2.86093 0.385025 2.66835 0.247129 2.45437 0.151487C2.24039 0.0558458 2.0094 0.00441788 1.77518 0.000272328C1.54096 -0.00387323 1.3083 0.0393486 1.09109 0.127358C0.873883 0.215368 0.676571 0.346364 0.510925 0.512529C0.345279 0.678695 0.214694 0.876627 0.12696 1.09452C0.0392254 1.31241 -0.0038611 1.5458 0.000271475 1.78075C0.00440405 2.01571 0.055671 2.24743 0.151013 2.46208C0.246355 2.67673 0.383819 2.86992 0.555205 3.03012L7.5398 10.0436L0.550554 17.0548C0.242422 17.3866 0.0746724 17.8253 0.082646 18.2787C0.0906196 18.732 0.273694 19.1645 0.593299 19.4851C0.912904 19.8057 1.34409 19.9894 1.79601 19.9974C2.24793 20.0054 2.6853 19.8371 3.01598 19.528L10.0099 12.5168L16.9991 19.5303C17.3298 19.8394 17.7672 20.0077 18.2191 19.9997C18.671 19.9917 19.1022 19.8081 19.4218 19.4875C19.7414 19.1669 19.9245 18.7343 19.9325 18.281C19.9404 17.8276 19.7727 17.3889 19.4645 17.0572L12.48 10.0436L19.4669 3.03245Z" fill="black"/>
</svg>
