<svg width="29" height="29" viewBox="0 0 29 29" fill="none" xmlns="http://www.w3.org/2000/svg">
<path d="M28.227 4.39705C28.4687 4.16311 28.6615 3.88322 28.7942 3.57372C28.9269 3.26421 28.9968 2.9313 28.9999 2.5944C29.003 2.2575 28.9391 1.92335 28.8121 1.61146C28.6851 1.29958 28.4974 1.01619 28.26 0.777843C28.0226 0.539495 27.7403 0.350958 27.4295 0.223231C27.1187 0.0955052 26.7857 0.0311493 26.4498 0.033917C26.114 0.0366847 25.7821 0.106521 25.4734 0.239352C25.1647 0.372183 24.8855 0.565348 24.6521 0.807576L14.5143 10.9738L4.37991 0.807576C4.14835 0.558286 3.8691 0.358337 3.55884 0.219657C3.24857 0.0809764 2.91363 0.00640593 2.57401 0.000394876C2.23438 -0.00561618 1.89704 0.0570555 1.58208 0.18467C1.26713 0.312284 0.981027 0.502227 0.740841 0.743168C0.500655 0.984109 0.311306 1.27111 0.184092 1.58705C0.0568768 1.90299 -0.00559859 2.2414 0.000393639 2.58209C0.00638587 2.92278 0.0807229 3.25877 0.218969 3.57001C0.357215 3.88126 0.556538 4.16138 0.805048 4.39367L10.9327 14.5633L0.798303 24.7295C0.351512 25.2105 0.108275 25.8467 0.119837 26.504C0.131398 27.1614 0.396857 27.7886 0.860284 28.2534C1.32371 28.7183 1.94892 28.9846 2.60421 28.9962C3.25949 29.0078 3.89368 28.7638 4.37317 28.3156L14.5143 18.1494L24.6487 28.319C25.1282 28.7672 25.7624 29.0112 26.4177 28.9996C27.073 28.988 27.6982 28.7217 28.1616 28.2568C28.625 27.792 28.8905 27.1648 28.9021 26.5074C28.9136 25.8501 28.6704 25.2139 28.2236 24.7329L18.0959 14.5633L28.227 4.39705Z" fill="#A33129"/>
</svg>
