<svg width="22" height="22" viewBox="0 0 22 22" fill="none" xmlns="http://www.w3.org/2000/svg">
<path d="M21.4136 3.3357C21.5969 3.15822 21.7432 2.94589 21.8439 2.71109C21.9445 2.4763 21.9976 2.22375 21.9999 1.96816C22.0023 1.71258 21.9538 1.45909 21.8575 1.22249C21.7611 0.985886 21.6187 0.770904 21.4386 0.590088C21.2585 0.409272 21.0444 0.266244 20.8086 0.169348C20.5728 0.0724522 20.3202 0.0236305 20.0654 0.0257301C19.8106 0.0278298 19.5588 0.0808091 19.3246 0.181577C19.0905 0.282346 18.8787 0.428885 18.7016 0.612644L11.0109 8.32496L3.32269 0.612644C3.14702 0.423527 2.93518 0.271842 2.69981 0.166636C2.46443 0.0614304 2.21034 0.00485967 1.95269 0.000299561C1.69505 -0.00426055 1.43913 0.0432835 1.2002 0.140094C0.961271 0.236905 0.744228 0.381 0.562017 0.563782C0.379807 0.746565 0.236163 0.964289 0.139656 1.20397C0.0431479 1.44365 -0.00424721 1.70038 0.000298623 1.95883C0.00484445 2.21728 0.061238 2.47217 0.166114 2.70828C0.270991 2.9444 0.422201 3.15691 0.610726 3.33313L8.29378 11.048L0.605609 18.7603C0.266665 19.1252 0.0821396 19.6078 0.0909106 20.1065C0.0996815 20.6052 0.301064 21.081 0.652629 21.4336C1.00419 21.7863 1.47849 21.9883 1.97561 21.9971C2.47272 22.0059 2.95383 21.8208 3.31758 21.4808L11.0109 13.7685L18.699 21.4834C19.0628 21.8234 19.5439 22.0085 20.041 21.9997C20.5381 21.9909 21.0124 21.7889 21.364 21.4362C21.7155 21.0835 21.9169 20.6078 21.9257 20.1091C21.9345 19.6104 21.7499 19.1278 21.411 18.7629L13.7279 11.048L21.4136 3.3357Z" fill="white" fill-opacity="0.6"/>
</svg>
