<svg width="56" height="56" viewBox="0 0 56 56" fill="none" xmlns="http://www.w3.org/2000/svg">
<path d="M4 36V40H13.172L0 53.172L2.828 56L16 42.828V52H20V36H4Z" fill="white"/>
<path d="M48.0005 38H44.0005V48H48.0005V38Z" fill="white"/>
<path d="M40.0005 28H36.0005V48H40.0005V28Z" fill="white"/>
<path d="M32 32H28V48H32V32Z" fill="white"/>
<path d="M52 0H4C2.93946 0.00105895 1.92266 0.422826 1.17274 1.17274C0.422826 1.92266 0.00105895 2.93946 0 4V28H4V22H52.002L52.004 52H28V56H52C53.0604 55.9986 54.077 55.5767 54.8269 54.8269C55.5767 54.077 55.9986 53.0604 56 52V4C55.9988 2.93951 55.577 1.9228 54.8271 1.17292C54.0772 0.423036 53.0605 0.00121747 52 0ZM20 18H4V4H20V18ZM24 18V4H52L52.0014 18H24Z" fill="white"/>
</svg>
