<svg width="22" height="22" viewBox="0 0 22 22" fill="none" xmlns="http://www.w3.org/2000/svg">
<path d="M21.4844 5.43133L16.5695 0.515615C16.4061 0.352147 16.212 0.222475 15.9985 0.134005C15.7849 0.0455353 15.556 0 15.3248 0C15.0937 0 14.8648 0.0455353 14.6512 0.134005C14.4377 0.222475 14.2436 0.352147 14.0802 0.515615L0.515915 14.0803C0.35177 14.2431 0.221632 14.437 0.133065 14.6505C0.0444987 14.8641 -0.000729792 15.0931 8.90455e-06 15.3243V20.2401C8.90455e-06 20.7068 0.185439 21.1545 0.515507 21.4845C0.845575 21.8146 1.29324 22 1.76003 22H6.67599C6.9072 22.0007 7.13626 21.9555 7.34984 21.8669C7.56342 21.7784 7.75726 21.6482 7.9201 21.4841L21.4844 7.92053C21.6478 7.7571 21.7775 7.56307 21.866 7.34952C21.9545 7.13597 22 6.90708 22 6.67593C22 6.44478 21.9545 6.21589 21.866 6.00234C21.7775 5.78879 21.6478 5.59476 21.4844 5.43133ZM2.12413 14.9603L11.4401 5.64472L13.2761 7.48055L3.96005 16.795L2.12413 14.9603ZM1.76003 17.0843L4.91597 20.2401H1.76003V17.0843ZM7.04009 19.876L5.20417 18.0401L14.5202 8.7246L16.3561 10.5604L7.04009 19.876ZM17.6002 9.31638L12.6843 4.40067L15.3243 1.76077L20.2402 6.67538L17.6002 9.31638Z" fill="#DE3163"/>
</svg>
