<svg width="56" height="56" viewBox="0 0 56 56" fill="none" xmlns="http://www.w3.org/2000/svg">
<path d="M16.3333 14C16.9521 14 17.5456 13.7541 17.9832 13.3166C18.4208 12.879 18.6666 12.2855 18.6666 11.6666C18.6666 11.0478 18.4208 10.4543 17.9832 10.0167C17.5456 9.57915 16.9521 9.33331 16.3333 9.33331H11.6666C11.0477 9.33331 10.4543 9.57915 10.0167 10.0167C9.57909 10.4543 9.33325 11.0478 9.33325 11.6666V44.3333C9.33325 44.9522 9.57909 45.5456 10.0167 45.9832C10.4543 46.4208 11.0477 46.6666 11.6666 46.6666H16.3333C16.9521 46.6666 17.5456 46.4208 17.9832 45.9832C18.4208 45.5456 18.6666 44.9522 18.6666 44.3333C18.6666 43.7145 18.4208 43.121 17.9832 42.6834C17.5456 42.2458 16.9521 42 16.3333 42H13.9999V14H16.3333Z" fill="white"/>
<path d="M48.58 26.6467L42 17.3133C41.6432 16.8103 41.1017 16.469 40.4939 16.364C39.8861 16.2591 39.2615 16.3991 38.7567 16.7533C38.5043 16.9302 38.2895 17.1552 38.1246 17.4155C37.9597 17.6758 37.848 17.9662 37.7959 18.27C37.7438 18.5737 37.7524 18.8847 37.8212 19.1851C37.89 19.4854 38.0176 19.7692 38.1967 20.02L42.21 25.6667H42H23.3333C22.7145 25.6667 22.121 25.9125 21.6834 26.3501C21.2458 26.7877 21 27.3811 21 28C21 28.6188 21.2458 29.2123 21.6834 29.6499C22.121 30.0875 22.7145 30.3333 23.3333 30.3333H42L37.8 35.9333C37.6162 36.1785 37.4824 36.4574 37.4063 36.7542C37.3303 37.0511 37.3134 37.36 37.3568 37.6633C37.4001 37.9666 37.5028 38.2585 37.6589 38.5221C37.815 38.7858 38.0215 39.0161 38.2667 39.2C38.6706 39.5029 39.1618 39.6667 39.6667 39.6667C40.0289 39.6667 40.3862 39.5823 40.7102 39.4203C41.0342 39.2583 41.316 39.0231 41.5333 38.7333L48.5333 29.4C48.8322 29.0053 48.9977 28.5259 49.0061 28.0309C49.0145 27.536 48.8653 27.0512 48.58 26.6467Z" fill="white"/>
</svg>
