<svg width="29" height="29" viewBox="0 0 29 29" fill="none" xmlns="http://www.w3.org/2000/svg">
<path d="M27.8849 0.401685C27.6154 0.223466 27.3141 0.101094 26.9982 0.0415593C26.6823 -0.0179757 26.358 -0.0135068 26.0438 0.0547106C25.7296 0.122928 25.4316 0.253557 25.167 0.439136C24.9023 0.624714 24.6761 0.861606 24.5013 1.13628L10.7926 22.668L4.10709 16.3691C3.87121 16.1469 3.59469 15.9742 3.29331 15.8608C2.99193 15.7475 2.67159 15.6957 2.35058 15.7085C1.70228 15.7344 1.09061 16.0216 0.650145 16.5071C0.209677 16.9925 -0.0235121 17.6363 0.00187557 18.2969C0.0272632 18.9575 0.309148 19.5808 0.785519 20.0296L9.56366 28.2996C9.56366 28.2996 9.81565 28.5207 9.93227 28.5979C10.2018 28.7763 10.5031 28.8988 10.8191 28.9584C11.1351 29.018 11.4595 29.0135 11.7739 28.9453C12.0882 28.8771 12.3862 28.7464 12.6509 28.5608C12.9156 28.3751 13.1418 28.1381 13.3166 27.8633L28.6058 3.84945C28.7807 3.57486 28.9008 3.26784 28.9592 2.94594C29.0176 2.62404 29.0133 2.29356 28.9463 1.97338C28.8794 1.65321 28.7512 1.34961 28.569 1.07994C28.3869 0.810259 28.1544 0.579787 27.8849 0.401685Z" fill="#38813B"/>
</svg>
