<svg width="47" height="60" viewBox="0 0 47 60" fill="none" xmlns="http://www.w3.org/2000/svg">
<path d="M40 53.5833H40.25V53.3333V47.3333V47.1802L40.1136 47.1106C34.9175 44.459 29.1669 43.0765 23.3333 43.0765C17.4997 43.0765 11.7492 44.459 6.55303 47.1106L6.41667 47.1802V47.3333V53.3333V53.5833H6.66667H40ZM23.3333 36.9185C30.8987 36.9185 38.3295 38.9183 44.873 42.7153C44.8735 42.7156 44.874 42.7159 44.8745 42.7162L46.4167 43.6415V56.6667C46.4167 57.4844 46.0918 58.2687 45.5136 58.8469C44.9353 59.4251 44.1511 59.75 43.3333 59.75H3.33333C2.51558 59.75 1.73132 59.4251 1.15309 58.8469C0.574851 58.2687 0.25 57.4844 0.25 56.6667V43.6415L1.79373 42.7153C8.33717 38.9183 15.768 36.9185 23.3333 36.9185Z" fill="white" stroke="#1A2028" stroke-width="0.5"/>
<path d="M31.5279 27.2642C29.1023 28.8849 26.2505 29.75 23.3333 29.75C19.4213 29.75 15.6696 28.196 12.9034 25.4298C10.1373 22.6637 8.58325 18.9119 8.58325 15C8.58325 12.0827 9.44832 9.23097 11.0691 6.80534C12.6898 4.37972 14.9935 2.48918 17.6887 1.37278C20.3839 0.256391 23.3496 -0.0357081 26.2108 0.533424C29.0721 1.10256 31.7003 2.50736 33.7631 4.57018C35.8259 6.63301 37.2307 9.2612 37.7998 12.1224C38.369 14.9836 38.0769 17.9494 36.9605 20.6446C35.8441 23.3398 33.9535 25.6434 31.5279 27.2642ZM28.1019 7.86323C26.6904 6.92008 25.0309 6.41667 23.3333 6.41667C21.0568 6.41667 18.8736 7.32099 17.2639 8.93067C15.6542 10.5404 14.7499 12.7236 14.7499 15C14.7499 16.6976 15.2533 18.3571 16.1965 19.7687C17.1396 21.1802 18.4802 22.2803 20.0486 22.93C21.617 23.5796 23.3428 23.7496 25.0078 23.4184C26.6728 23.0872 28.2022 22.2697 29.4026 21.0693C30.603 19.8689 31.4205 18.3395 31.7517 16.6745C32.0828 15.0095 31.9129 13.2837 31.2632 11.7153C30.6136 10.1469 29.5134 8.80637 28.1019 7.86323Z" fill="white" stroke="#1A2028" stroke-width="0.5"/>
</svg>
